<svg height="512pt" viewBox="0 -20 512 512" width="512pt" xmlns="http://www.w3.org/2000/svg"><path d="m279.714844 177c13.4375 0 23.160156 12.726562 19.511718 25.554688l-45.421874 159.796874c-2.464844 8.664063-10.4375 14.648438-19.519532 14.648438-13.4375 0-23.160156-12.726562-19.511718-25.554688l45.421874-159.796874c2.464844-8.664063 10.4375-14.648438 19.519532-14.648438zm-154.324219 95.792969 49.460937-41.46875c8.460938-7.09375 9.570313-19.710938 2.476563-28.175781-7.097656-8.460938-19.710937-9.570313-28.175781-2.476563l-49.527344 41.523437c-.03125.027344-.066406.054688-.097656.082032-10.503906 8.921875-16.527344 21.941406-16.527344 35.722656s6.023438 26.800781 16.527344 35.722656c.03125.023438.0625.054688.097656.082032l49.523438 41.519531c3.75 3.144531 8.304687 4.675781 12.839843 4.675781 5.710938 0 11.382813-2.433594 15.335938-7.148438 7.097656-8.464843 5.988281-21.082031-2.476563-28.175781l-49.457031-41.46875c-2.078125-1.785156-2.390625-4.027343-2.390625-5.207031s.3125-3.421875 2.390625-5.207031zm260.132813 10.488281-48.527344 41.523438c-8.390625 7.179687-9.375 19.804687-2.191406 28.199218 3.957031 4.621094 9.5625 6.996094 15.207031 6.996094 4.597656 0 9.222656-1.578125 12.992187-4.804688l48.46875-41.476562c10.503906-8.917969 16.527344-21.9375 16.527344-35.71875s-6.023438-26.800781-16.472656-35.671875l-48.523438-41.523437c-8.394531-7.183594-21.019531-6.199219-28.199218 2.191406-7.183594 8.394531-6.199219 21.019531 2.191406 28.199218l48.582031 41.570313c2.105469 1.789063 2.421875 4.046875 2.421875 5.234375 0 1.183594-.3125 3.441406-2.476562 5.28125zm126.476562-223.28125v232c0 11.046875-8.953125 20-20 20s-20-8.953125-20-20v-171h-432v271c0 22.054688 17.945312 40 40 40h352c22.054688 0 40-17.945312 40-40 0-11.046875 8.953125-20 20-20s20 8.953125 20 20c0 44.113281-35.886719 80-80 80h-352c-44.113281 0-80-35.886719-80-80v-332c0-33.085938 26.914062-60 60-60h392c33.085938 0 60 26.914062 60 60zm-161 0c0 11.027344 8.972656 20 20 20s20-8.972656 20-20-8.972656-20-20-20-20 8.972656-20 20zm100-20c-11.027344 0-20 8.972656-20 20s8.972656 20 20 20 20-8.972656 20-20-8.972656-20-20-20zm-411 41h274.800781c-2.453125-6.539062-3.800781-13.613281-3.800781-21 0-7.011719 1.21875-13.738281 3.441406-20h-254.441406c-11.027344 0-20 8.972656-20 20zm0 0"/></svg>